<?xml version="1.0" standalone="no"?>
<!DOCTYPE svg PUBLIC "-//W3C//DTD SVG 20010904//EN"
 "http://www.w3.org/TR/2001/REC-SVG-20010904/DTD/svg10.dtd">
<svg version="1.0" xmlns="http://www.w3.org/2000/svg"
 width="700.000000pt" height="700.000000pt" viewBox="0 0 700.000000 700.000000"
 preserveAspectRatio="xMidYMid meet">
<metadata>
Created by potrace 1.11, written by Peter Selinger 2001-2013
</metadata>
<g transform="translate(0.000000,700.000000) scale(0.100000,-0.100000)"
fill="#000000" stroke="none">
<path d="M3438 6845 c-2 -1 -41 -6 -88 -9 -88 -7 -141 -14 -175 -21 -11 -2
-42 -7 -70 -10 -160 -21 -537 -124 -690 -190 -16 -7 -50 -21 -75 -31 -174 -73
-366 -177 -555 -303 l-130 -86 -790 -2 c-434 0 -798 -1 -808 -2 -9 -1 -26 -10
-37 -21 -20 -20 -20 -33 -20 -2030 0 -1997 0 -2010 20 -2030 24 -24 -2 -22
323 -24 l268 -1 52 -100 c175 -334 358 -586 607 -835 156 -157 192 -190 315
-286 222 -174 468 -320 757 -448 178 -79 481 -171 683 -206 28 -5 61 -11 75
-14 49 -10 187 -27 270 -34 167 -14 591 -6 685 13 11 2 43 7 70 10 176 21 553
115 680 170 17 7 46 18 65 25 163 59 426 195 610 316 l96 62 673 0 c652 0 674
1 700 19 14 11 32 31 38 44 10 19 13 391 13 1706 l0 1681 -26 31 c-14 17 -32
31 -40 31 -15 0 -34 30 -40 66 -11 59 -80 271 -131 399 -133 337 -333 671
-557 929 l-51 59 -1 214 c0 204 -1 215 -21 235 -21 20 -31 21 -255 22 -213 1
-236 3 -265 21 -18 10 -33 23 -33 27 0 4 -4 8 -10 8 -5 0 -37 20 -72 44 -346
239 -879 449 -1303 512 -16 2 -44 7 -61 9 -17 3 -56 8 -85 11 -30 3 -70 8 -89
11 -37 5 -516 13 -522 8z"/>
</g>
</svg>
